<svg width="36" height="36" viewBox="0 0 36 36" fill="none" xmlns="http://www.w3.org/2000/svg">
<path d="M15.773 0.76001H2.05499C1.77519 0.76001 1.50687 0.87118 1.30902 1.06903C1.11117 1.26688 1 1.5352 1 1.815V12.367C1 12.6468 1.11117 12.9152 1.30902 13.113C1.50687 13.3109 1.77519 13.422 2.05499 13.422H15.773C16.0528 13.422 16.3211 13.3109 16.519 13.113C16.7168 12.9152 16.828 12.6468 16.828 12.367V1.81702C16.8283 1.6783 16.8012 1.54089 16.7483 1.41266C16.6954 1.28443 16.6177 1.16791 16.5197 1.06973C16.4217 0.971555 16.3053 0.893659 16.1772 0.840515C16.0491 0.787371 15.9117 0.76001 15.773 0.76001ZM14.718 11.312H3.10999V2.87003H14.717L14.718 11.312Z" fill="#606060" stroke="#606060"/>
<path d="M33.712 0.76001H19.994C19.7142 0.76001 19.4458 0.87118 19.248 1.06903C19.0501 1.26688 18.939 1.5352 18.939 1.815V18.698C18.939 18.9778 19.0501 19.2461 19.248 19.444C19.4458 19.6419 19.7142 19.753 19.994 19.753H33.712C33.9918 19.753 34.2602 19.6419 34.458 19.444C34.6559 19.2461 34.767 18.9778 34.767 18.698V1.81702C34.7672 1.6783 34.7402 1.54089 34.6873 1.41266C34.6344 1.28443 34.5567 1.16791 34.4587 1.06973C34.3607 0.971555 34.2443 0.893659 34.1162 0.840515C33.9881 0.787371 33.8507 0.76001 33.712 0.76001ZM32.657 17.643H21.051V2.87302H32.658L32.657 17.643Z" fill="#606060" stroke="#606060"/>
<path d="M15.773 15.5354H2.05499C1.77519 15.5354 1.50687 15.6465 1.30902 15.8444C1.11117 16.0422 1 16.3106 1 16.5904V33.4744C1 33.7542 1.11117 34.0225 1.30902 34.2204C1.50687 34.4182 1.77519 34.5294 2.05499 34.5294H15.773C16.0528 34.5294 16.3211 34.4182 16.519 34.2204C16.7168 34.0225 16.828 33.7542 16.828 33.4744V16.5904C16.828 16.3106 16.7168 16.0422 16.519 15.8444C16.3211 15.6465 16.0528 15.5354 15.773 15.5354ZM14.718 32.4184H3.10999V17.6454H14.717L14.718 32.4184Z" fill="#606060" stroke="#606060"/>
<path d="M33.712 21.8665H19.994C19.7142 21.8665 19.4458 21.9776 19.248 22.1755C19.0501 22.3733 18.939 22.6417 18.939 22.9215V33.4735C18.939 33.7533 19.0501 34.0216 19.248 34.2195C19.4458 34.4173 19.7142 34.5285 19.994 34.5285H33.712C33.9918 34.5285 34.2602 34.4173 34.458 34.2195C34.6559 34.0216 34.767 33.7533 34.767 33.4735V22.9235C34.7672 22.7847 34.7402 22.6474 34.6873 22.5191C34.6344 22.3909 34.5567 22.2744 34.4587 22.1762C34.3607 22.078 34.2443 22.0001 34.1162 21.947C33.9881 21.8938 33.8507 21.8665 33.712 21.8665ZM32.657 32.4235H21.051V23.9815H32.658L32.657 32.4235Z" fill="#606060" stroke="#606060"/>
</svg>
