<svg width="36" height="41" viewBox="0 0 36 41" fill="none" xmlns="http://www.w3.org/2000/svg">
<path d="M12.9152 20.701C12.676 20.297 12.3359 19.962 11.9282 19.7291C11.3833 19.4335 10.8147 19.184 10.2282 18.9831C9.77223 18.8383 9.33793 18.6324 8.93719 18.3711C8.83644 18.2856 8.75692 18.1778 8.70486 18.0563C8.65281 17.9349 8.62964 17.803 8.63721 17.6711C8.63455 17.5287 8.66103 17.3873 8.71503 17.2556C8.76903 17.1239 8.8494 17.0046 8.9512 16.9051C9.05975 16.7977 9.18935 16.7139 9.33185 16.659C9.47434 16.6041 9.62665 16.5792 9.77921 16.5861C10.4632 16.5861 10.9722 17.0591 11.2962 18.0051L12.9722 17.3161C12.8388 16.6976 12.5097 16.1385 12.0337 15.7217C11.5576 15.3049 10.9599 15.0525 10.3292 15.0021V13.881H9.1152V15.0021C8.73151 15.0323 8.358 15.1404 8.01755 15.3199C7.6771 15.4995 7.37685 15.7465 7.13519 16.0461C6.71817 16.6018 6.49572 17.2793 6.5022 17.9741C6.49133 18.4719 6.61392 18.9636 6.85721 19.3981C7.07339 19.7916 7.38928 20.1213 7.77319 20.3541C8.27372 20.6347 8.80057 20.8655 9.34619 21.0431C9.85437 21.1923 10.3391 21.4121 10.7862 21.696C10.8964 21.7872 10.9833 21.9034 11.0396 22.0349C11.096 22.1664 11.1202 22.3094 11.1102 22.4521C11.1129 22.6038 11.0857 22.7546 11.0301 22.8958C10.9745 23.037 10.8916 23.1659 10.7862 23.2751C10.6494 23.3977 10.489 23.491 10.3148 23.5493C10.1406 23.6076 9.95624 23.6296 9.77319 23.6141C9.55427 23.627 9.33497 23.5958 9.12833 23.5224C8.92168 23.449 8.7319 23.3347 8.57025 23.1865C8.40861 23.0383 8.2784 22.8591 8.18735 22.6596C8.09629 22.4601 8.04624 22.2443 8.04019 22.0251L6.1582 22.5131C6.24969 23.2482 6.59536 23.9282 7.13538 24.4354C7.67539 24.9425 8.37576 25.2449 9.1152 25.2901V26.7401H10.3342V25.2851C11.1676 25.2419 11.9537 24.8846 12.5342 24.2851C13.0473 23.6988 13.3192 22.9398 13.2952 22.1611C13.3049 21.6488 13.1734 21.1436 12.9152 20.701Z" fill="#606060"/>
<path d="M29.4481 10.9721C29.4474 10.8526 29.4192 10.7348 29.3658 10.6278C29.3124 10.5209 29.2352 10.4276 29.1401 10.3551L20.0741 1.28908C20.0023 1.21761 19.9165 1.16177 19.8221 1.12508C19.7916 1.10729 19.7574 1.09669 19.7221 1.09407C19.6583 1.07021 19.5902 1.05972 19.5221 1.06313H1.76712C1.56255 1.06313 1.36634 1.14427 1.22159 1.28884C1.07684 1.4334 0.995382 1.62955 0.995117 1.83412V36.9151C0.995117 37.1199 1.07644 37.3162 1.22122 37.461C1.366 37.6058 1.56237 37.6871 1.76712 37.6871H15.0801C15.2827 37.6871 15.4771 37.6066 15.6203 37.4633C15.7636 37.3201 15.8441 37.1257 15.8441 36.9231V36.9091C15.8441 36.7065 15.7636 36.5121 15.6203 36.3689C15.4771 36.2256 15.2827 36.1451 15.0801 36.1451H2.54312V2.60909H18.7571V10.9761C18.757 11.0774 18.7768 11.1777 18.8155 11.2713C18.8542 11.3649 18.911 11.4499 18.9826 11.5216C19.0543 11.5932 19.1393 11.65 19.2329 11.6887C19.3265 11.7274 19.4268 11.7472 19.5281 11.7471H27.8961L27.9051 15.0351C27.9051 15.2377 27.9856 15.4321 28.1289 15.5753C28.2722 15.7186 28.4665 15.7991 28.6691 15.7991H28.6841C28.8867 15.7991 29.0811 15.7186 29.2243 15.5753C29.3676 15.4321 29.4481 15.2377 29.4481 15.0351L29.4381 11.0761C29.4467 11.0422 29.4501 11.0071 29.4481 10.9721ZM20.3001 10.2001V3.69509L26.8001 10.2001H20.3001Z" fill="#606060" stroke="#606060"/>
<path d="M33.2372 16.6131H18.4432C17.9693 16.6142 17.5151 16.8033 17.1804 17.1389C16.8458 17.4745 16.6579 17.9292 16.6582 18.4031V38.9671C16.6582 39.4409 16.8461 39.8953 17.1808 40.2307C17.5154 40.5661 17.9694 40.755 18.4432 40.7561H33.2372C33.7115 40.7556 34.1663 40.567 34.5016 40.2316C34.837 39.8962 35.0257 39.4414 35.0262 38.9671V18.4031C35.0257 17.9287 34.8371 17.4739 34.5017 17.1383C34.1663 16.8028 33.7116 16.6139 33.2372 16.6131ZM33.4842 38.9671C33.4832 39.0322 33.4568 39.0943 33.4106 39.1403C33.3645 39.1862 33.3023 39.2124 33.2372 39.2131H18.4432C18.4112 39.2129 18.3795 39.2063 18.35 39.1938C18.3205 39.1813 18.2937 39.1631 18.2713 39.1403C18.2488 39.1174 18.231 39.0904 18.219 39.0607C18.207 39.031 18.2009 38.9991 18.2012 38.9671V18.4031C18.2007 18.3383 18.2259 18.2759 18.2712 18.2296C18.3166 18.1833 18.3784 18.1569 18.4432 18.1561H33.2372C33.3025 18.1569 33.3649 18.1832 33.411 18.2293C33.4572 18.2755 33.4834 18.3379 33.4842 18.4031V38.9671Z" fill="#606060" stroke="#606060" stroke-width="0.2"/>
<path d="M31.3354 19.2508H20.2534C19.8785 19.2513 19.5192 19.4005 19.2541 19.6655C18.989 19.9306 18.8399 20.2899 18.8394 20.6648V22.5828C18.8396 22.9577 18.9887 23.3172 19.2538 23.5823C19.5189 23.8475 19.8784 23.9965 20.2534 23.9968H31.3354C31.7103 23.9965 32.0698 23.8475 32.3349 23.5823C32.6 23.3172 32.7491 22.9577 32.7494 22.5828V20.6648C32.7488 20.2899 32.5997 19.9306 32.3346 19.6655C32.0696 19.4005 31.7102 19.2513 31.3354 19.2508ZM31.2064 22.4507H20.3824V20.7938H31.2064V22.4507Z" fill="#606060"/>
<path d="M31.4833 25.1961H20.1033C19.8988 25.1961 19.7027 25.2773 19.5581 25.4219C19.4135 25.5665 19.3323 25.7626 19.3323 25.9671V37.3481C19.3321 37.4494 19.352 37.5498 19.3907 37.6434C19.4293 37.7371 19.4861 37.8222 19.5577 37.8939C19.6293 37.9656 19.7144 38.0225 19.808 38.0613C19.9016 38.1002 20.0019 38.1201 20.1033 38.1201H31.4833C31.688 38.1201 31.8844 38.0388 32.0291 37.894C32.1739 37.7492 32.2553 37.5528 32.2553 37.3481V25.9681C32.2554 25.8667 32.2355 25.7662 32.1968 25.6725C32.158 25.5788 32.1012 25.4936 32.0295 25.4219C31.9577 25.3502 31.8726 25.2933 31.7788 25.2546C31.6851 25.2158 31.5847 25.196 31.4833 25.1961ZM30.7113 28.9861H28.4613V26.7391H30.7113V28.9861ZM20.8753 30.5311H23.1253V32.7811H20.8753V30.5311ZM24.6683 26.7381H26.9173V28.9881H24.6683V26.7381ZM24.6683 32.7811V30.5311H26.9183V32.7811H24.6683ZM20.8753 26.7381H23.1253V28.9881H20.8753V26.7381ZM20.8753 34.3251H23.1273V36.5771H20.8753V34.3251ZM24.6703 34.3251H26.9173V36.5771H24.6703V34.3251ZM30.7123 36.5771H28.4593V33.5771C28.4593 33.5701 28.4593 33.5641 28.4593 33.5571V30.5321H30.7093L30.7123 36.5771Z" fill="#606060"/>
</svg>
