<svg width="33" height="37" viewBox="0 0 33 37" fill="none" xmlns="http://www.w3.org/2000/svg">
<path d="M5.50488 23.4976C4.93624 23.4968 4.39111 23.2705 3.98901 22.8684C3.58692 22.4663 3.36066 21.9212 3.35986 21.3525V13.5366C3.36092 12.4944 3.77548 11.495 4.51245 10.7581C5.24943 10.0211 6.24865 9.60653 7.29089 9.60547C7.43153 9.61149 7.56448 9.67155 7.66187 9.77319C7.75925 9.87484 7.8136 10.0104 7.8136 10.1511C7.8136 10.2919 7.75925 10.4272 7.66187 10.5288C7.56448 10.6305 7.43153 10.6905 7.29089 10.6965C6.53792 10.6973 5.816 10.9969 5.28357 11.5293C4.75114 12.0617 4.45172 12.7836 4.45093 13.5366V21.3525C4.45093 21.6321 4.56198 21.9002 4.75964 22.0979C4.95731 22.2956 5.22534 22.4065 5.50488 22.4065C5.78442 22.4065 6.05258 22.2956 6.25024 22.0979C6.44791 21.9002 6.55896 21.6321 6.55896 21.3525V15.2986C6.55896 15.1539 6.61633 15.0151 6.71863 14.9128C6.82093 14.8105 6.95969 14.7529 7.10437 14.7529C7.24905 14.7529 7.38781 14.8105 7.49011 14.9128C7.59241 15.0151 7.6499 15.1539 7.6499 15.2986V21.3525C7.64937 21.9213 7.42327 22.4665 7.02112 22.8687C6.61897 23.2708 6.07361 23.497 5.50488 23.4976Z" fill="#606060" stroke="#606060"/>
<path d="M10.6981 36.2314H7.1051C7.0334 36.2314 6.96236 36.2174 6.89612 36.1899C6.82987 36.1625 6.76969 36.1225 6.71899 36.0718C6.66829 36.0211 6.62803 35.9608 6.60059 35.8945C6.57315 35.8283 6.55908 35.7572 6.55908 35.6855V20.3325C6.55908 20.1878 6.61657 20.0491 6.71887 19.9468C6.82117 19.8445 6.95994 19.7871 7.10461 19.7871C7.24929 19.7871 7.38806 19.8445 7.49036 19.9468C7.59266 20.0491 7.65002 20.1878 7.65002 20.3325V35.1396H10.15V22.0757C10.1469 22.0021 10.1587 21.9283 10.1847 21.8594C10.2107 21.7904 10.2503 21.7275 10.3013 21.6743C10.3522 21.6211 10.4134 21.5787 10.4812 21.5498C10.549 21.5209 10.6219 21.5063 10.6956 21.5063C10.7692 21.5063 10.8422 21.5209 10.9099 21.5498C10.9777 21.5787 11.0389 21.6211 11.0898 21.6743C11.1408 21.7275 11.1804 21.7904 11.2064 21.8594C11.2324 21.9283 11.2442 22.0021 11.2411 22.0757V35.6855C11.2411 35.8298 11.1839 35.968 11.0822 36.0703C10.9804 36.1726 10.8424 36.2307 10.6981 36.2314Z" fill="#606060" stroke="#606060"/>
<path d="M14.2908 36.2314H10.6978C10.6261 36.2314 10.5551 36.2174 10.4889 36.1899C10.4227 36.1625 10.3625 36.122 10.3118 36.0713C10.2611 36.0206 10.2208 35.9608 10.1934 35.8945C10.1659 35.8283 10.1519 35.7572 10.1519 35.6855V22.1174C10.1487 22.0438 10.1604 21.9703 10.1864 21.9014C10.2124 21.8324 10.2521 21.7695 10.3031 21.7163C10.3541 21.6631 10.4153 21.6207 10.483 21.5918C10.5508 21.5629 10.6236 21.5481 10.6973 21.5481C10.7709 21.5481 10.8439 21.5629 10.9116 21.5918C10.9794 21.6207 11.0406 21.6631 11.0916 21.7163C11.1425 21.7695 11.1823 21.8324 11.2083 21.9014C11.2343 21.9703 11.246 22.0438 11.2428 22.1174V35.1372H13.7428L13.7498 15.3374C13.7498 15.1927 13.8073 15.054 13.9096 14.9517C14.0119 14.8494 14.1506 14.792 14.2953 14.792C14.44 14.792 14.5787 14.8494 14.681 14.9517C14.7833 15.054 14.8408 15.1927 14.8408 15.3374L14.8339 35.6826C14.8344 35.7544 14.8207 35.8251 14.7937 35.8916C14.7667 35.9581 14.7267 36.0188 14.6763 36.0698C14.6258 36.1208 14.5658 36.1612 14.4996 36.189C14.4335 36.2167 14.3625 36.2312 14.2908 36.2314Z" fill="#606060" stroke="#606060"/>
<path d="M10.6981 8.38754C9.98607 8.38754 9.2901 8.17642 8.69809 7.78085C8.10607 7.38528 7.64464 6.82294 7.37216 6.16513C7.09968 5.50731 7.02842 4.78363 7.16733 4.08529C7.30623 3.38696 7.64909 2.7455 8.15256 2.24203C8.65602 1.73856 9.29749 1.39559 9.99582 1.25668C10.6941 1.11777 11.418 1.18904 12.0758 1.46152C12.7336 1.73399 13.2958 2.19543 13.6914 2.78744C14.0869 3.37946 14.2981 4.07543 14.2981 4.78744C14.2981 5.74222 13.9189 6.65797 13.2437 7.3331C12.5686 8.00823 11.6529 8.38754 10.6981 8.38754ZM10.6981 2.27865C10.2019 2.27865 9.71677 2.42581 9.30417 2.70151C8.89156 2.9772 8.56999 3.36902 8.38009 3.82748C8.19019 4.28594 8.14046 4.79025 8.23727 5.27695C8.33408 5.76364 8.57303 6.21072 8.92392 6.56161C9.27481 6.9125 9.72189 7.15157 10.2086 7.24838C10.6953 7.34519 11.1998 7.29546 11.6583 7.10556C12.1168 6.91566 12.5086 6.59409 12.7843 6.18149C13.06 5.76888 13.2071 5.28368 13.2071 4.78744C13.2063 4.12226 12.9418 3.48461 12.4714 3.01425C12.001 2.54389 11.3633 2.27945 10.6981 2.27865Z" fill="#606060" stroke="#606060"/>
<path d="M27.5889 23.4976C27.0202 23.4968 26.4751 23.2705 26.073 22.8684C25.6709 22.4663 25.4446 21.9212 25.4438 21.3525V15.2986C25.4499 15.1579 25.5101 15.0251 25.6117 14.9277C25.7133 14.8304 25.8486 14.7759 25.9894 14.7759C26.1301 14.7759 26.2654 14.8304 26.3671 14.9277C26.4687 15.0251 26.5289 15.1579 26.5349 15.2986V21.3525C26.5349 21.6321 26.646 21.9002 26.8436 22.0979C27.0413 22.2956 27.3093 22.4065 27.5889 22.4065C27.8684 22.4065 28.1366 22.2956 28.3342 22.0979C28.5319 21.9002 28.6429 21.6321 28.6429 21.3525V13.5366C28.6422 12.7836 28.3426 12.0617 27.8102 11.5293C27.2777 10.9969 26.5558 10.6973 25.8029 10.6965C25.6622 10.6905 25.5294 10.6305 25.432 10.5288C25.3346 10.4272 25.2803 10.2919 25.2803 10.1511C25.2803 10.0104 25.3346 9.87484 25.432 9.77319C25.5294 9.67155 25.6622 9.61149 25.8029 9.60547C26.8451 9.60653 27.8443 10.0211 28.5813 10.7581C29.3183 11.495 29.7328 12.4944 29.7339 13.5366V21.3525C29.7331 21.9212 29.5068 22.4663 29.1047 22.8684C28.7026 23.2705 28.1575 23.4968 27.5889 23.4976Z" fill="#606060" stroke="#606060"/>
<path d="M25.9862 36.2319H22.3932C22.3215 36.2319 22.2505 36.2179 22.1842 36.1904C22.118 36.163 22.0578 36.123 22.0071 36.0723C21.9564 36.0216 21.9162 35.9613 21.8888 35.895C21.8614 35.8288 21.8472 35.7577 21.8472 35.686V22.0762C21.844 22.0026 21.8559 21.9288 21.8818 21.8599C21.9078 21.7909 21.9475 21.728 21.9984 21.6748C22.0494 21.6216 22.1106 21.5792 22.1784 21.5503C22.2461 21.5214 22.319 21.5068 22.3927 21.5068C22.4664 21.5068 22.5393 21.5214 22.6071 21.5503C22.6748 21.5792 22.736 21.6216 22.787 21.6748C22.838 21.728 22.8776 21.7909 22.9036 21.8599C22.9296 21.9288 22.9414 22.0026 22.9382 22.0762V35.1401H25.4382V20.333C25.4443 20.1924 25.5043 20.0593 25.606 19.9619C25.7076 19.8645 25.8429 19.8105 25.9837 19.8105C26.1244 19.8105 26.2598 19.8645 26.3615 19.9619C26.4631 20.0593 26.5232 20.1924 26.5292 20.333V35.686C26.5292 35.8303 26.4721 35.9685 26.3704 36.0708C26.2686 36.1731 26.1305 36.2311 25.9862 36.2319Z" fill="#606060" stroke="#606060"/>
<path d="M18.9857 10.7417H14.1038C13.9631 10.7357 13.8303 10.6756 13.7329 10.574C13.6355 10.4724 13.5811 10.3371 13.5811 10.1963C13.5811 10.0555 13.6355 9.92026 13.7329 9.81862C13.8303 9.71698 13.9631 9.65692 14.1038 9.6509H18.9857C19.0593 9.64774 19.1329 9.65933 19.2018 9.68532C19.2707 9.71131 19.3336 9.75105 19.3868 9.80202C19.44 9.85298 19.4823 9.9142 19.5112 9.98195C19.5401 10.0497 19.5551 10.1226 19.5551 10.1963C19.5551 10.27 19.5401 10.3429 19.5112 10.4107C19.4823 10.4784 19.44 10.5396 19.3868 10.5906C19.3336 10.6416 19.2707 10.6811 19.2018 10.707C19.1329 10.733 19.0593 10.7449 18.9857 10.7417Z" fill="#606060" stroke="#606060"/>
<path d="M22.394 36.2314H18.801C18.7293 36.2316 18.6582 36.2173 18.5919 36.1899C18.5256 36.1625 18.4654 36.1225 18.4147 36.0718C18.3639 36.021 18.3237 35.9608 18.2963 35.8945C18.2689 35.8282 18.2549 35.7573 18.255 35.6855L18.248 15.3403C18.248 15.1957 18.3055 15.0569 18.4078 14.9546C18.5101 14.8523 18.6489 14.7949 18.7936 14.7949C18.9383 14.7949 19.0769 14.8523 19.1792 14.9546C19.2815 15.0569 19.339 15.1957 19.339 15.3403L19.3461 35.1406H21.8461V22.1174C21.8429 22.0438 21.8546 21.9703 21.8806 21.9014C21.9066 21.8324 21.9463 21.7695 21.9973 21.7163C22.0483 21.6631 22.1095 21.6207 22.1772 21.5918C22.245 21.5629 22.3178 21.5481 22.3915 21.5481C22.4651 21.5481 22.5381 21.5629 22.6058 21.5918C22.6736 21.6207 22.7348 21.6631 22.7858 21.7163C22.8367 21.7695 22.8764 21.8324 22.9023 21.9014C22.9283 21.9703 22.9402 22.0438 22.937 22.1174V35.6826C22.9374 35.7543 22.9237 35.8252 22.8966 35.8916C22.8695 35.958 22.8296 36.0184 22.7792 36.0693C22.7288 36.1203 22.6689 36.1607 22.6028 36.1885C22.5367 36.2163 22.4657 36.2311 22.394 36.2314Z" fill="#606060" stroke="#606060"/>
<path d="M22.3921 8.38754C21.68 8.38754 20.984 8.17642 20.3919 7.78085C19.7999 7.38528 19.3385 6.82294 19.066 6.16513C18.7935 5.50731 18.7223 4.78363 18.8612 4.08529C19.0001 3.38696 19.3429 2.7455 19.8464 2.24203C20.3499 1.73856 20.9913 1.39559 21.6897 1.25668C22.388 1.11777 23.1119 1.18904 23.7697 1.46152C24.4276 1.73399 24.9898 2.19543 25.3853 2.78744C25.7809 3.37946 25.992 4.07543 25.992 4.78744C25.992 5.74222 25.6127 6.65797 24.9376 7.3331C24.2625 8.00823 23.3468 8.38754 22.3921 8.38754ZM22.3921 2.27865C21.8958 2.27865 21.4107 2.42581 20.9981 2.70151C20.5855 2.9772 20.264 3.36902 20.0741 3.82748C19.8842 4.28594 19.8344 4.79025 19.9312 5.27695C20.0281 5.76364 20.267 6.21072 20.6179 6.56161C20.9688 6.9125 21.4159 7.15157 21.9026 7.24838C22.3893 7.34519 22.8937 7.29546 23.3521 7.10556C23.8106 6.91566 24.2025 6.59409 24.4782 6.18149C24.7539 5.76888 24.901 5.28368 24.901 4.78744C24.9002 4.12226 24.6356 3.48461 24.1653 3.01425C23.6949 2.54389 23.0572 2.27945 22.3921 2.27865Z" fill="#606060" stroke="#606060"/>
<path d="M31.545 36.2979H1.54504C1.40037 36.2979 1.2616 36.2405 1.1593 36.1382C1.057 36.0359 0.999512 35.8971 0.999512 35.7524C0.999512 35.6078 1.057 35.469 1.1593 35.3667C1.2616 35.2644 1.40037 35.207 1.54504 35.207H31.545C31.6897 35.207 31.8285 35.2644 31.9308 35.3667C32.0331 35.469 32.0906 35.6078 32.0906 35.7524C32.0906 35.8971 32.0331 36.0359 31.9308 36.1382C31.8285 36.2405 31.6897 36.2979 31.545 36.2979Z" fill="#606060" stroke="#606060"/>
</svg>
