<svg width="36" height="32" viewBox="0 0 36 32" fill="none" xmlns="http://www.w3.org/2000/svg">
<g style="mix-blend-mode:multiply">
<path d="M34.363 31.2083C34.1981 31.2081 34.0392 31.1464 33.9172 31.0355C33.7952 30.9246 33.7189 30.7723 33.703 30.6082L33.403 27.3182C33.287 26.0179 32.6871 24.8085 31.7221 23.9293C30.7571 23.05 29.4975 22.565 28.1921 22.5701H21.6921L18.568 27.2833C18.5079 27.3752 18.4258 27.4506 18.3293 27.503C18.2327 27.5554 18.1249 27.583 18.0151 27.5833C17.9054 27.5828 17.7977 27.5551 17.7013 27.5028C17.605 27.4504 17.5232 27.375 17.4631 27.2833L14.3349 22.5701H7.83488C6.52941 22.5634 5.26927 23.0482 4.30461 23.9278C3.33995 24.8074 2.74131 26.0176 2.62785 27.3182L2.32292 30.6082C2.30661 30.7834 2.22151 30.9449 2.0861 31.0572C1.9507 31.1695 1.77617 31.2237 1.601 31.2073C1.42582 31.191 1.26436 31.1057 1.15202 30.9703C1.03969 30.8349 0.985565 30.6603 1.00188 30.4852L1.30192 27.1964C1.44537 25.5664 2.19605 24.0498 3.4052 22.9473C4.61434 21.8449 6.19373 21.2369 7.83 21.2442H14.683C14.7928 21.2445 14.9007 21.2722 14.9972 21.3245C15.0938 21.3769 15.1759 21.4524 15.236 21.5443L18.008 25.7203L20.776 21.5443C20.8362 21.4524 20.918 21.3769 21.0146 21.3245C21.1111 21.2722 21.2192 21.2445 21.329 21.2442H28.1821C29.8185 21.2377 31.3977 21.8459 32.6073 22.9481C33.8169 24.0503 34.5687 25.5664 34.714 27.1964L35.019 30.4852C35.0271 30.572 35.0179 30.6597 34.9921 30.743C34.9663 30.8263 34.9246 30.9037 34.8688 30.9708C34.8131 31.0378 34.7446 31.0933 34.6674 31.1339C34.5902 31.1744 34.5057 31.1994 34.4189 31.2073L34.363 31.2083Z" fill="#606060" stroke="#606060" stroke-width="1.5"/>
<path d="M18.0122 18.589C13.5682 18.589 9.95215 14.6721 9.95215 9.85706C9.95215 5.04206 13.5672 1.12488 18.0122 1.12488C22.4572 1.12488 26.0723 5.04206 26.0723 9.85706C26.0723 14.6721 22.4562 18.589 18.0122 18.589ZM18.0122 2.45105C14.2992 2.45105 11.2793 5.77306 11.2793 9.85706C11.2793 13.9411 14.3002 17.2631 18.0122 17.2631C21.7242 17.2631 24.7463 13.9411 24.7463 9.85706C24.7463 5.77306 21.7252 2.45105 18.0122 2.45105Z" fill="#606060" stroke="#606060" stroke-width="1.5"/>
</g>
</svg>
