<svg width="21" height="17" viewBox="0 0 21 17" fill="none" xmlns="http://www.w3.org/2000/svg">
<path d="M1.57519 16.7995C1.36888 16.8002 1.16461 16.7586 0.974984 16.6773C0.785357 16.5961 0.61439 16.4768 0.472623 16.3269C0.322732 16.1851 0.203468 16.0142 0.122185 15.8245C0.0409019 15.6349 -0.000678313 15.4307 8.36843e-06 15.2243V1.57519C-0.000678313 1.36888 0.0409019 1.16461 0.122185 0.974984C0.203468 0.785357 0.322732 0.61439 0.472623 0.472623C0.61439 0.322732 0.785357 0.203468 0.974984 0.122185C1.16461 0.0409019 1.36888 -0.000678313 1.57519 8.36843e-06H19.4248C19.8394 0.0101023 20.2342 0.179298 20.5275 0.472542C20.8207 0.765786 20.9899 1.1606 21 1.57519V15.2243C20.9899 15.6389 20.8207 16.0337 20.5275 16.327C20.2342 16.6202 19.8394 16.7894 19.4248 16.7995H1.57519ZM10.497 8.87238L1.57519 3.01895V15.2243H19.4248V3.01835L10.497 8.87238ZM10.497 7.2972L19.3169 1.57519H1.706L10.497 7.2972Z" fill="white"/>
</svg>
