<svg width="16" height="18" viewBox="0 0 16 18" fill="none" xmlns="http://www.w3.org/2000/svg">
<path d="M0.77526 17.2446C0.766959 17.2446 0.758658 17.2444 0.749869 17.2441C0.473502 17.2305 0.260612 16.9951 0.274039 16.7187C0.46691 12.812 1.36852 10.7869 3.48937 9.4956C4.92126 8.62598 6.3612 8.20215 7.78698 8.24292C8.06359 8.25024 8.2821 8.48047 8.27453 8.75732C8.26745 9.03418 8.03991 9.26196 7.76012 9.24463C6.51379 9.21533 5.29186 9.57373 4.00988 10.3521C2.51379 11.2632 1.47594 12.7029 1.27526 16.7681C1.26183 17.0361 1.0404 17.2446 0.77526 17.2446Z" fill="white"/>
<path d="M14.7717 17.2447C14.5065 17.2447 14.2851 17.0362 14.2714 16.7684C14.071 12.703 13.0334 11.263 11.5366 10.3516C10.2553 9.57357 9.02558 9.21615 7.78706 9.24472C7.50019 9.25741 7.27998 9.03378 7.27265 8.75741C7.26508 8.4808 7.48383 8.25033 7.7602 8.24301C9.18037 8.2015 10.6259 8.62631 12.0573 9.49496C14.1787 10.787 15.08 12.8123 15.2729 16.7188C15.2861 16.9954 15.0732 17.2306 14.7968 17.2442C14.7885 17.2445 14.78 17.2447 14.7717 17.2447Z" fill="white"/>
<path d="M4.30176 17.2444C4.0249 17.2444 3.80078 17.02 3.80078 16.7432V14.6501C3.80078 14.3733 4.0249 14.1489 4.30176 14.1489C4.57861 14.1489 4.80298 14.3733 4.80298 14.6501V16.7432C4.80298 17.02 4.57861 17.2444 4.30176 17.2444Z" fill="white"/>
<path d="M10.9392 17.2444C10.6624 17.2444 10.438 17.02 10.438 16.7432V14.6501C10.438 14.3733 10.6624 14.1489 10.9392 14.1489C11.2161 14.1489 11.4402 14.3733 11.4402 14.6501V16.7432C11.4402 17.02 11.2161 17.2444 10.9392 17.2444Z" fill="white"/>
<path d="M7.62109 8.35767C5.31665 8.35767 3.44189 6.48291 3.44189 4.17847C3.44189 1.87451 5.31665 0 7.62109 0C9.92529 0 11.7998 1.87451 11.7998 4.17847C11.7998 6.48291 9.92529 8.35767 7.62109 8.35767ZM7.62109 1.0022C5.86938 1.0022 4.44434 2.427 4.44434 4.17847C4.44434 5.93018 5.86938 7.35547 7.62109 7.35547C9.37256 7.35547 10.7974 5.93018 10.7974 4.17847C10.7974 2.427 9.37256 1.0022 7.62109 1.0022Z" fill="white"/>
</svg>
